<svg width="582" height="2003" xmlns="http://www.w3.org/2000/svg">
 <!-- Created with Method Draw - http://github.com/duopixel/Method-Draw/ -->

 <g>
  <title>background</title>
  <rect x="-1" y="-1" width="584" height="1005" id="canvas_background" fill="#fff"/>
  <g id="canvasGrid" display="none">
   <rect id="svg_2" width="100%" height="100%" x="0" y="0" stroke-width="0" fill="url(#gridpattern)"/>
  </g>
 </g>
 <g>
  <title>Layer 1</title>
  <rect fill="#111111" stroke="#111111" stroke-width="1.5" x="1.810643" width="181" height="1000" id="svg_1" y="2.195313"/>
  <path fill="#000111" stroke="#000111" stroke-width="1.5" opacity="0.5" d="m205.5,51.895321" id="svg_7"/>
  <path fill="#111111" stroke="#111111" stroke-width="1.5" d="m161.389053,-3.063583c20.244568,35.093288 4.652313,30.597975 8.413834,55.489883c1.880753,12.445938 7.26091,19.427757 12.291687,22.693718c5.030777,3.265961 11.20018,2.042328 13.071625,1.468071c1.871445,-0.574265 15.246445,-12.637638 19.557831,-16.268646" id="svg_10" transform="rotate(-140, 188.057, 37.1172)"/>
  <path id="svg_9" d="m198.998901,25.442307l-0.764908,-2.544655c0.224518,-0.187086 0.431992,-0.386969 0.632874,-0.601089l2.679855,0.727257c0.285873,-0.390814 0.528732,-0.805622 0.744415,-1.236502l-1.996872,-1.831894c0.096771,-0.26907 0.180557,-0.542912 0.236343,-0.825058l2.692245,-0.639454c0.017319,-0.235363 0.035294,-0.471928 0.035294,-0.71306s-0.017975,-0.476706 -0.035294,-0.712048l-2.692245,-0.639162c-0.058807,-0.282351 -0.139572,-0.556248 -0.236343,-0.825227l1.996872,-1.832031c-0.215683,-0.429789 -0.458542,-0.845737 -0.744415,-1.236388l-2.679855,0.726213c-0.200882,-0.21318 -0.408356,-0.413104 -0.632874,-0.601011l0.764908,-2.54386c-0.41217,-0.267268 -0.849762,-0.498964 -1.306061,-0.70555l-1.928619,1.893561c-0.284698,-0.090866 -0.576141,-0.16845 -0.870438,-0.22544l-0.67009,-2.551319c-0.250046,-0.01781 -0.500137,-0.036589 -0.753738,-0.036589s-0.503708,0.018779 -0.748581,0.036589l-0.674606,2.551319c-0.298218,0.05699 -0.586456,0.134574 -0.875015,0.22544l-1.929459,-1.893561c-0.451355,0.209273 -0.889786,0.440033 -1.302475,0.708433l0.767731,2.54389c-0.226028,0.186954 -0.434296,0.387752 -0.631027,0.600128l-2.684723,-0.727302c-0.280426,0.390724 -0.525726,0.806651 -0.742859,1.237561l1.995483,1.831754c-0.095154,0.26918 -0.175949,0.542929 -0.234329,0.825212l-2.691116,0.639227c-0.019028,0.235504 -0.04245,0.471889 -0.04245,0.712147s0.023422,0.476789 0.04245,0.713062l2.691116,0.639257c0.05838,0.282101 0.139175,0.55633 0.234329,0.825466l-1.995483,1.83168c0.217133,0.42975 0.462433,0.845581 0.742859,1.236471l2.684723,-0.727222c0.196732,0.214125 0.404999,0.41309 0.631027,0.600798l-0.767731,2.54497c0.412689,0.267157 0.854324,0.498283 1.306229,0.705822l1.928696,-1.893497c0.285568,0.090448 0.573807,0.169136 0.872025,0.225107l0.674606,2.550665c0.244873,0.018393 0.496048,0.036364 0.748581,0.036364s0.503693,-0.018896 0.753738,-0.036364l0.674271,-2.550665c0.292511,-0.056728 0.581558,-0.135469 0.866257,-0.225107l1.932068,1.893497c0.45285,-0.209539 0.890442,-0.440321 1.302612,-0.707834zm-5.528946,-4.486776c-1.850311,0 -3.349625,-1.422512 -3.349625,-3.176651s1.499313,-3.175802 3.349625,-3.175802s3.346191,1.421717 3.346191,3.175802s-1.496689,3.176651 -3.346191,3.176651zm15.258972,6.640276c0.020538,-0.511047 -0.055664,-1.031689 -0.224426,-1.545527l1.228226,-1.657179c-0.187897,-0.327206 -0.395569,-0.637503 -0.631836,-0.919836l-2.093842,0.415802c-0.419174,-0.339848 -0.900574,-0.605412 -1.411285,-0.795147l-0.600891,-1.943115c-0.381592,-0.063446 -0.768158,-0.098133 -1.159927,-0.098982l-0.95813,1.809429c-0.273224,0.050396 -0.552536,0.119507 -0.819427,0.217674c-0.25296,0.0916 -0.4935,0.205534 -0.717957,0.329994l-1.976364,-0.76544c-0.289505,0.244656 -0.557755,0.509235 -0.800018,0.796391l0.894409,1.839411c-0.254288,0.462255 -0.430679,0.960413 -0.508926,1.480743l-1.864761,0.990959c0.017181,0.36261 0.076065,0.725061 0.163254,1.088911l2.071762,0.485138c0.224701,0.489458 0.53067,0.9277 0.898422,1.301634l-0.343704,1.998367c0.316315,0.214714 0.650192,0.399834 0.996399,0.56052l1.69101,-1.233686c0.528244,0.132093 1.079117,0.18247 1.634918,0.13999l1.430756,1.502018c0.201187,-0.053154 0.395615,-0.110306 0.585754,-0.18037c0.173965,-0.061611 0.336365,-0.134281 0.500717,-0.20829l0.033539,-2.02352c0.448517,-0.316641 0.829834,-0.698191 1.139099,-1.126863l2.127899,-0.125147c0.149887,-0.335598 0.275116,-0.684147 0.360718,-1.042162l-1.645386,-1.291718zm-4.099152,1.87553c-1.179123,0.42823 -2.505951,-0.1343 -2.957458,-1.256931s0.13855,-2.379316 1.323105,-2.808468c1.183151,-0.427858 2.509003,0.134809 2.960526,1.256905c0.449814,1.122587 -0.142426,2.379864 -1.326172,2.808495z" stroke-width="1.5" stroke="#ffffff" fill="#111111"/>
 </g>
</svg>