<svg width="216" height="600" xmlns="http://www.w3.org/2000/svg">
 <!-- Created with Method Draw - http://github.com/duopixel/Method-Draw/ -->

 <g>
  <title>background</title>
  <rect x="-1" y="-1" width="218" height="602" id="canvas_background" fill="none"/>
  <g id="canvasGrid" display="none">
   <rect id="svg_2" width="100%" height="100%" x="0" y="0" stroke-width="0" fill="url(#gridpattern)"/>
  </g>
 </g>
 <g>
  <title>Layer 1</title>
  <rect fill="#111111" stroke="#111111" stroke-width="1.5" x="0.126322" width="180" height="700" id="svg_1" y="0"/>
  <path fill="#000111" stroke="#000111" stroke-width="1.5" opacity="0.5" d="m206.5,52.895321" id="svg_7"/>
  <path fill="#111111" stroke="#111111" stroke-width="1.5" d="m158.761993,-6.157534c20.244568,35.093287 4.652344,30.597977 8.413849,55.489874c1.880768,12.445942 7.260895,19.427761 12.291687,22.693722c5.030792,3.265961 11.200165,2.042328 13.071625,1.468063c1.87146,-0.574265 15.24646,-12.637638 19.557831,-16.268631" id="svg_10" transform="rotate(-140, 185.43, 34.0203)"/>
  <path id="svg_9" d="m196.254364,24.690874l-0.764893,-2.544662c0.224487,-0.187073 0.431976,-0.386963 0.632874,-0.601074l2.67984,0.727249c0.285858,-0.390808 0.528717,-0.805618 0.744415,-1.236496l-1.996887,-1.831909c0.096802,-0.269073 0.180573,-0.542908 0.236359,-0.825043l2.69223,-0.639465c0.017334,-0.235352 0.035309,-0.471924 0.035309,-0.713058s-0.017975,-0.4767 -0.035309,-0.712051l-2.69223,-0.63916c-0.058807,-0.282349 -0.139557,-0.556244 -0.236359,-0.825226l1.996887,-1.832031c-0.215698,-0.429779 -0.458557,-0.845734 -0.744415,-1.236389l-2.67984,0.726227c-0.200897,-0.213196 -0.408386,-0.413116 -0.632874,-0.601013l0.764893,-2.543854c-0.41217,-0.267273 -0.849762,-0.498978 -1.306061,-0.705566l-1.928619,1.89357c-0.284698,-0.090866 -0.576141,-0.168457 -0.870422,-0.225449l-0.670105,-2.551315c-0.250061,-0.017807 -0.500122,-0.036591 -0.753723,-0.036591s-0.503723,0.018784 -0.748596,0.036591l-0.674622,2.551315c-0.298218,0.056992 -0.586426,0.134583 -0.875,0.225449l-1.929443,-1.89357c-0.451355,0.209274 -0.889801,0.440033 -1.30249,0.708435l0.767731,2.543884c-0.226044,0.186966 -0.434296,0.387756 -0.631012,0.600128l-2.684753,-0.727295c-0.280396,0.390717 -0.525696,0.806656 -0.742859,1.237564l1.995483,1.831741c-0.095154,0.269196 -0.175934,0.542938 -0.234314,0.825226l-2.691101,0.639221c-0.019043,0.235504 -0.04248,0.471893 -0.04248,0.712158s0.023438,0.476776 0.04248,0.713058l2.691101,0.639252c0.05838,0.282104 0.13916,0.556335 0.234314,0.825455l-1.995483,1.831696c0.217163,0.429749 0.462463,0.845581 0.742859,1.236465l2.684753,-0.727219c0.196716,0.214127 0.404968,0.413086 0.631012,0.6008l-0.767731,2.544968c0.412689,0.267166 0.854309,0.498276 1.306213,0.705826l1.928711,-1.893509c0.285583,0.090454 0.573792,0.169144 0.872009,0.225113l0.674622,2.550659c0.244873,0.018402 0.496033,0.036377 0.748596,0.036377s0.503662,-0.01889 0.753723,-0.036377l0.674255,-2.550659c0.292542,-0.056732 0.581573,-0.135468 0.866272,-0.225113l1.932068,1.893509c0.45285,-0.209549 0.890442,-0.440323 1.302612,-0.70784zm-5.528931,-4.486771c-1.850342,0 -3.34964,-1.422516 -3.34964,-3.176666s1.499298,-3.175781 3.34964,-3.175781s3.346191,1.421707 3.346191,3.175781s-1.496704,3.176666 -3.346191,3.176666zm15.258972,6.640276c0.020508,-0.511049 -0.055664,-1.031694 -0.224426,-1.545534l1.22821,-1.657181c-0.187897,-0.327209 -0.395569,-0.637497 -0.631836,-0.91983l-2.093842,0.415802c-0.419159,-0.339844 -0.900574,-0.605423 -1.411285,-0.795151l-0.600891,-1.943115c-0.381592,-0.063446 -0.768158,-0.098129 -1.159912,-0.098984l-0.95813,1.809433c-0.273254,0.0504 -0.552551,0.119507 -0.819458,0.217682c-0.25293,0.091599 -0.493469,0.205521 -0.717957,0.329987l-1.976349,-0.765442c-0.28952,0.244659 -0.55777,0.509232 -0.800018,0.796402l0.894409,1.839401c-0.254272,0.462265 -0.430664,0.960403 -0.508911,1.480728l-1.864777,0.990969c0.017181,0.36261 0.07608,0.725067 0.163239,1.088913l2.071777,0.485138c0.224701,0.489456 0.53067,0.927704 0.898438,1.301651l-0.343719,1.99835c0.316315,0.214724 0.650177,0.399843 0.996399,0.560518l1.69101,-1.233675c0.528259,0.13208 1.079102,0.182465 1.634918,0.139984l1.430756,1.502016c0.201172,-0.053146 0.39563,-0.110306 0.585754,-0.180359c0.17395,-0.061615 0.336365,-0.134293 0.500732,-0.208298l0.033508,-2.023516c0.448547,-0.316648 0.829834,-0.69821 1.139099,-1.12686l2.12793,-0.125153c0.149872,-0.335602 0.275085,-0.684143 0.360718,-1.042175l-1.645386,-1.291702zm-4.099182,1.875534c-1.179108,0.428223 -2.50592,-0.134308 -2.957458,-1.256927s0.13855,-2.379335 1.32312,-2.808474c1.183167,-0.427856 2.509003,0.134796 2.96051,1.256897c0.449829,1.122591 -0.142395,2.379869 -1.326172,2.808504l0,0z" stroke-width="1.5" stroke="#ffffff" fill="#111111"/>
 </g>
</svg>